<?xml version="1.0" standalone="no"?>
<!DOCTYPE svg PUBLIC "-//W3C//DTD SVG 1.1//EN"
"http://www.w3.org/Graphics/SVG/1.1/DTD/svg11.dtd">

<svg width="296" height="177" view_box="0 0 296 177"
xmlns="http://www.w3.org/2000/svg"
xmlns:link="http://www.w3.org/1999/xlink">\n\n<desc>Généré par Mocodo 2.3.7 le Wed, 10 Nov 2021 00:50:17</desc>

<rect id="frame" x="0" y="0" width="296" height="177" fill="#f7f7f7" stroke="none" stroke-width="0"/>

<!-- Association APPARTIENT -->
<line x1="160" y1="51" x2="55" y2="143" stroke="#4393c3" stroke-width="2"/>
<text x="95" y="83.5839685501" fill="#b2182b" font-family="Verdana" font-size="12">1,1</text>
<line x1="55" y1="51" x2="55" y2="143" stroke="#4393c3" stroke-width="2"/>
<text x="60.0" y="93" fill="#b2182b" font-family="Verdana" font-size="12">0,N</text>
<g id="association-APPARTIENT">
	<path d="M 87 118 a 14 14 90 0 1 14 14 V 143 h -92 V 132 a 14 14 90 0 1 14 -14" fill="#92c5de" stroke="#92c5de" stroke-width="0"/>
	<path d="M 101 143.0 v 11 a 14 14 90 0 1 -14 14 H 23 a 14 14 90 0 1 -14 -14 V 143.0 H 92" fill="#d1e5f0" stroke="#d1e5f0" stroke-width="0"/>
	<rect x="9" y="118" width="92" height="50" fill="none" rx="14" stroke="#4393c3" stroke-width="2"/>
	<line x1="9" y1="143" x2="101" y2="143" stroke="#4393c3" stroke-width="1"/>
	<text x="16" y="135.7" fill="#000000" font-family="Verdana" font-size="12">APPARTIENT</text>
</g>

<!-- Association AVOIR -->
<line x1="259" y1="51" x2="160" y2="143" stroke="#4393c3" stroke-width="2"/>
<text x="204" y="75.724959268" fill="#b2182b" font-family="Verdana" font-size="12">0,N</text>
<line x1="160" y1="51" x2="160" y2="143" stroke="#4393c3" stroke-width="2"/>
<text x="165.0" y="110" fill="#b2182b" font-family="Verdana" font-size="12">0,N</text>
<g id="association-AVOIR">
	<path d="M 173 118 a 14 14 90 0 1 14 14 V 143 h -54 V 132 a 14 14 90 0 1 14 -14" fill="#92c5de" stroke="#92c5de" stroke-width="0"/>
	<path d="M 187 143.0 v 11 a 14 14 90 0 1 -14 14 H 147 a 14 14 90 0 1 -14 -14 V 143.0 H 54" fill="#d1e5f0" stroke="#d1e5f0" stroke-width="0"/>
	<rect x="133" y="118" width="54" height="50" fill="none" rx="14" stroke="#4393c3" stroke-width="2"/>
	<line x1="133" y1="143" x2="187" y2="143" stroke="#4393c3" stroke-width="1"/>
	<text x="140" y="135.7" fill="#000000" font-family="Verdana" font-size="12">AVOIR</text>
</g>

<!-- Entity LISTE -->
<g id="entity-LISTE">
	<g id="frame-LISTE">
		<rect x="32" y="26" width="46" height="25" fill="#f4a582" stroke="#f4a582" stroke-width="0"/>
		<rect x="32" y="51.0" width="46" height="25" fill="#fddbc7" stroke="#fddbc7" stroke-width="0"/>
		<rect x="32" y="26" width="46" height="50" fill="none" stroke="#d6604d" stroke-width="2"/>
		<line x1="32" y1="51" x2="78" y2="51" stroke="#d6604d" stroke-width="1"/>
	</g>
	<text x="37" y="43.7" fill="#000000" font-family="Verdana" font-size="12">LISTE</text>
	<text x="37" y="68.8" fill="#000000" font-family="Verdana" font-size="12">nom</text>
	<line x1="37" y1="71" x2="65" y2="71" stroke="#000000" stroke-width="1"/>
</g>

<!-- Entity CARTE -->
<g id="entity-CARTE">
	<g id="frame-CARTE">
		<rect x="121" y="9" width="78" height="25" fill="#f4a582" stroke="#f4a582" stroke-width="0"/>
		<rect x="121" y="34.0" width="78" height="59" fill="#fddbc7" stroke="#fddbc7" stroke-width="0"/>
		<rect x="121" y="9" width="78" height="84" fill="none" stroke="#d6604d" stroke-width="2"/>
		<line x1="121" y1="34" x2="199" y2="34" stroke="#d6604d" stroke-width="1"/>
	</g>
	<text x="139" y="26.7" fill="#000000" font-family="Verdana" font-size="12">CARTE</text>
	<text x="126" y="51.8" fill="#000000" font-family="Verdana" font-size="12">description</text>
	<line x1="126" y1="54" x2="193" y2="54" stroke="#000000" stroke-width="1"/>
	<text x="126" y="68.8" fill="#000000" font-family="Verdana" font-size="12">couleur</text>
	<text x="126" y="85.8" fill="#000000" font-family="Verdana" font-size="12">ordre</text>
</g>

<!-- Entity LABEL -->
<g id="entity-LABEL">
	<g id="frame-LABEL">
		<rect x="231" y="17" width="56" height="25" fill="#f4a582" stroke="#f4a582" stroke-width="0"/>
		<rect x="231" y="42.0" width="56" height="43" fill="#fddbc7" stroke="#fddbc7" stroke-width="0"/>
		<rect x="231" y="17" width="56" height="68" fill="none" stroke="#d6604d" stroke-width="2"/>
		<line x1="231" y1="42" x2="287" y2="42" stroke="#d6604d" stroke-width="1"/>
	</g>
	<text x="240" y="34.7" fill="#000000" font-family="Verdana" font-size="12">LABEL</text>
	<text x="236" y="59.8" fill="#000000" font-family="Verdana" font-size="12">nom</text>
	<line x1="236" y1="62" x2="264" y2="62" stroke="#000000" stroke-width="1"/>
	<text x="236" y="76.8" fill="#000000" font-family="Verdana" font-size="12">couleur</text>
</g>
</svg>